<svg width="178" height="35" viewBox="0 0 178 35" fill="none" xmlns="http://www.w3.org/2000/svg">
<path d="M30.7818 26.4245V8.60156H24.139V9.78778H26.6597V19.6334C26.6597 21.4424 26.1556 23.1327 25.3549 24.4079C24.4059 25.8017 23.0418 26.4838 21.4107 26.4838C20.5211 26.4838 19.839 26.2465 19.3942 25.8017C18.5935 25.001 18.4452 23.5479 18.4452 22.421V8.63122H12.2175V9.81744H14.2934V22.5396C14.2934 24.4079 14.7382 25.7424 15.5983 26.6914C16.5472 27.6403 17.9707 28.0852 19.9873 28.0852C23.0121 28.0852 25.3252 26.6914 26.5708 24.2003V27.6403H33.4212V26.4541H30.7818V26.4245Z" fill="white"/>
<path d="M43.1487 26.4212V0.027832H36.6838V1.21405H38.997V26.4212H36.6838V27.6074H45.8177V26.4212H43.1487Z" fill="white"/>
<path d="M55.6044 26.4227V8.62939H49.1692V9.81561H51.4823V26.4227H49.1692V27.6089H58.3031V26.4227H55.6044Z" fill="white"/>
<path d="M79.506 26.4245V8.60156H72.8632V9.78778H75.3839V19.6334C75.3839 21.4424 74.8797 23.1327 74.079 24.4079C73.1301 25.8017 71.7659 26.4838 70.1348 26.4838C69.2452 26.4838 68.5631 26.2465 68.1183 25.8017C67.3176 25.001 67.1693 23.5479 67.1693 22.421V8.63122H60.9713V9.81744H63.0472V22.5396C63.0472 24.4079 63.492 25.7424 64.352 26.6914C65.301 27.6403 66.7245 28.0852 68.741 28.0852C71.7659 28.0852 74.079 26.6914 75.3246 24.2003V27.6403H82.175V26.4541H79.506V26.4245Z" fill="white"/>
<path d="M136.266 20.1659C136.266 22.5384 135.703 24.3177 134.457 25.5039C133.004 26.957 130.751 27.5798 127.37 27.5798H114.826V26.3936H117.465V1.24579H114.826V0.0595703H127.044C129.624 0.0595703 131.492 0.623021 132.678 1.80924C133.686 2.81752 134.191 4.32995 134.191 6.37617C134.191 9.63827 132.322 11.7142 128.556 12.5742C132.441 13.0783 136.266 14.4424 136.266 20.1659ZM129.861 14.5018C128.971 13.6121 127.785 13.2562 126.213 13.2562H122.002V26.4232H125.59C130.721 26.4232 131.492 23.1018 131.492 19.8397C131.492 17.3487 130.928 15.6287 129.861 14.5018ZM128.111 2.16511C127.488 1.54234 126.599 1.21613 125.472 1.21613H122.032V11.8921H125.175C128.319 11.8921 129.446 10.4983 129.446 6.88032C129.446 5.36789 129.238 3.29201 128.111 2.16511Z" fill="white"/>
<path d="M0.415176 0.0296572V1.21587H2.93589V27.6092C2.81727 31.0492 2.37244 33.1844 0.563454 33.7479C0.504143 33.7479 0 33.8665 0 33.8665V34.9934C0 34.9934 1.12691 35.0527 2.25381 34.8155C5.57523 34.1334 7.38421 31.6127 7.47317 27.7278V0H0.415176V0.0296572Z" fill="white"/>
<path d="M177.043 12.1863C175.293 11.8601 174.285 11.9491 173.603 12.0677C170.163 12.5125 168.473 16.2195 168.473 19.8374V26.4209H170.993V27.6072H161.83V26.4803H164.35V9.78423H161.652V8.59802H168.502V15.0629C170.519 10.7925 172.773 8.4794 175.086 8.53871C176.391 8.53871 177.399 8.77595 177.962 8.98354L177.043 12.1863Z" fill="white"/>
<path d="M152.132 16.4606V19.96C152.132 22.54 150.946 26.6621 147.743 26.6621C147.12 26.6621 146.676 26.4842 146.29 26.0987C145.667 25.4759 145.341 24.2897 145.341 22.3324C145.341 19.011 146.083 18.1807 148.277 17.4986C148.247 17.5875 151.45 16.6386 152.132 16.4606ZM156.581 25.98C156.195 25.5945 156.017 24.8531 156.017 23.6076V13.8806C156.017 12.0123 155.572 10.7371 154.712 9.87714C153.585 8.75024 151.687 8.24609 148.929 8.24609C146.854 8.24609 142.02 8.69093 142.02 13.0206C142.02 13.4655 142.138 13.8213 142.405 14.0882C142.731 14.4144 143.147 14.533 143.918 14.533C144.659 14.533 145.104 14.4144 145.43 14.0882C145.756 13.762 145.934 13.1985 145.934 12.4572C145.934 11.3896 146.172 10.6482 146.616 10.2034C147.12 9.69921 147.862 9.52127 148.989 9.52127C149.878 9.52127 150.561 9.69921 151.005 10.2034C151.747 10.9447 151.895 12.4572 151.895 13.7917V15.3041C150.442 15.8082 149.315 16.1048 147.743 16.4903L145.43 17.0538C141.99 17.8544 140.478 19.5745 140.478 22.5697C140.478 24.6455 140.922 26.0097 141.782 26.8994C142.672 27.789 143.977 28.2042 145.786 28.2042C148.544 28.2042 150.294 27.4035 151.628 25.3869C152.31 27.5814 153.823 27.7594 155.898 27.7594H158.923V26.5731C157.707 26.4249 157.025 26.4249 156.581 25.98Z" fill="white"/>
<path d="M97.7149 13.7005V9.37079C95.4018 8.6294 94.008 8.18457 92.0804 8.18457C88.9962 8.18457 85.8824 9.99355 85.8824 14.0267C85.8824 17.615 88.9666 18.7419 91.5763 19.7205C93.8894 20.6102 96.0839 21.4109 96.0839 23.6647C96.0839 25.7999 94.008 26.9268 92.0211 26.9268C89.1445 26.9268 87.1873 25.1178 86.7424 21.8557H85.2893V26.8675C87.81 27.7571 89.7376 28.0537 91.9321 28.0537C94.1859 28.0537 96.3804 27.253 97.7149 25.8592C98.7232 24.8509 99.2867 23.5461 99.2867 22.093C99.2867 17.5853 95.9653 16.4584 93.0294 15.5095C90.7756 14.7681 88.8183 14.0563 88.8183 12.0694C88.8183 11.3874 88.9962 10.8239 89.4411 10.3791C90.0045 9.81562 90.8349 9.57838 91.8728 9.57838C93.059 9.57838 94.0673 9.90459 94.6901 10.468C96.0839 11.6543 96.3804 13.7301 96.3804 13.7301L97.7149 13.7005Z" fill="white"/>
<path d="M53.5582 5.21798C54.9012 5.21798 55.99 4.12926 55.99 2.78624C55.99 1.44322 54.9012 0.354492 53.5582 0.354492C52.2152 0.354492 51.1265 1.44322 51.1265 2.78624C51.1265 4.12926 52.2152 5.21798 53.5582 5.21798Z" fill="white"/>
<path d="M145.43 5.21798C146.773 5.21798 147.862 4.12926 147.862 2.78624C147.862 1.44322 146.773 0.354492 145.43 0.354492C144.087 0.354492 142.998 1.44322 142.998 2.78624C142.998 4.12926 144.087 5.21798 145.43 5.21798Z" fill="white"/>
<path d="M153.141 5.21798C154.484 5.21798 155.572 4.12926 155.572 2.78624C155.572 1.44322 154.484 0.354492 153.141 0.354492C151.798 0.354492 150.709 1.44322 150.709 2.78624C150.709 4.12926 151.798 5.21798 153.141 5.21798Z" fill="white"/>
</svg>
